<svg width="59" height="59" viewBox="0 0 59 59" fill="none" xmlns="http://www.w3.org/2000/svg">
<path d="M53.6045 24.7717C52.4185 23.9902 51.0079 23.6215 49.5911 23.7227C48.8956 23.7269 48.2016 23.7879 47.516 23.9051C47.3304 22.8308 46.922 21.8072 46.3172 20.9C45.7125 19.9928 44.9246 19.2222 44.0043 18.6376L43.2974 18.2271L42.8414 18.8883C42.2666 19.7862 41.8429 20.7722 41.5872 21.8071C41.3439 22.7234 41.2913 23.6798 41.4325 24.6173C41.5737 25.5547 41.9057 26.4532 42.4081 27.2571C41.2812 27.7726 40.0659 28.0667 38.828 28.1236H6.44746C6.04227 28.1237 5.65369 28.2846 5.36717 28.5711C5.08066 28.8577 4.91969 29.2463 4.91966 29.6514C4.87505 32.4892 5.35434 35.3108 6.33347 37.9746C7.21926 40.5977 8.95194 42.8518 11.2589 44.3824C14.6021 46.0736 18.3248 46.8747 22.0677 46.7083C24.0792 46.7082 26.0866 46.5251 28.0649 46.1611C30.8222 45.6618 33.4747 44.698 35.9092 43.3107C37.9123 42.1485 39.7143 40.67 41.2451 38.9324C43.5144 36.2691 45.2834 33.2176 46.4671 29.925H46.9232C47.9317 29.9666 48.9382 29.8042 49.8825 29.4477C50.8268 29.0911 51.6894 28.5477 52.4187 27.85C53.0538 27.2489 53.5517 26.5177 53.8781 25.7065L54.0834 25.1137L53.6045 24.7717Z" fill="#6563FF"/>
<path d="M9.45749 27.1888H13.7901C13.8411 27.1892 13.8917 27.1795 13.939 27.1602C13.9862 27.1408 14.0291 27.1123 14.0652 27.0762C14.1013 27.0401 14.1298 26.9972 14.1491 26.95C14.1685 26.9027 14.1782 26.8521 14.1777 26.8011V22.9246C14.1782 22.8736 14.1685 22.8229 14.1491 22.7757C14.1298 22.7285 14.1013 22.6856 14.0652 22.6495C14.0291 22.6134 13.9862 22.5848 13.939 22.5655C13.8917 22.5462 13.8411 22.5365 13.7901 22.5369H9.45749C9.40646 22.5365 9.35585 22.5462 9.30862 22.5655C9.26139 22.5848 9.21848 22.6134 9.18239 22.6495C9.14631 22.6856 9.11777 22.7285 9.09845 22.7757C9.07912 22.8229 9.0694 22.8736 9.06984 22.9246V26.8011C9.07272 26.903 9.11448 27 9.18657 27.072C9.25865 27.1441 9.35559 27.1859 9.45749 27.1888ZM15.4319 27.1888H19.7645C19.8156 27.1892 19.8662 27.1795 19.9134 27.1602C19.9606 27.1408 20.0035 27.1123 20.0396 27.0762C20.0757 27.0401 20.1042 26.9972 20.1236 26.95C20.1429 26.9027 20.1526 26.8521 20.1522 26.8011V22.9246C20.1526 22.8736 20.1429 22.8229 20.1236 22.7757C20.1042 22.7285 20.0757 22.6856 20.0396 22.6495C20.0035 22.6134 19.9606 22.5848 19.9134 22.5655C19.8662 22.5462 19.8156 22.5365 19.7645 22.5369H15.4319C15.3809 22.5365 15.3303 22.5462 15.2831 22.5655C15.2358 22.5848 15.1929 22.6134 15.1568 22.6495C15.1207 22.6856 15.0922 22.7285 15.0729 22.7757C15.0536 22.8229 15.0438 22.8736 15.0443 22.9246V26.8011C15.0472 26.903 15.0889 27 15.161 27.072C15.2331 27.1441 15.33 27.1859 15.4319 27.1888ZM21.5204 27.1888H25.853C25.904 27.1892 25.9546 27.1795 26.0019 27.1602C26.0491 27.1408 26.092 27.1123 26.1281 27.0762C26.1642 27.0401 26.1927 26.9972 26.212 26.95C26.2314 26.9027 26.2411 26.8521 26.2406 26.8011V22.9246C26.2411 22.8736 26.2314 22.8229 26.212 22.7757C26.1927 22.7285 26.1642 22.6856 26.1281 22.6495C26.092 22.6134 26.0491 22.5848 26.0019 22.5655C25.9546 22.5462 25.904 22.5365 25.853 22.5369H21.5203C21.4692 22.5365 21.4186 22.5462 21.3714 22.5655C21.3242 22.5848 21.2812 22.6134 21.2452 22.6495C21.2091 22.6856 21.1805 22.7285 21.1612 22.7757C21.1419 22.8229 21.1322 22.8736 21.1326 22.9246V26.8011C21.1303 26.8526 21.1387 26.9041 21.1573 26.9522C21.176 27.0003 21.2045 27.044 21.2409 27.0804C21.2774 27.1169 21.3211 27.1454 21.3692 27.164C21.4173 27.1827 21.4687 27.1911 21.5203 27.1888H21.5204ZM27.5176 27.1888H31.8502C31.9012 27.1892 31.9518 27.1795 31.9991 27.1602C32.0463 27.1408 32.0892 27.1123 32.1253 27.0762C32.1614 27.0401 32.1899 26.9972 32.2092 26.95C32.2286 26.9027 32.2383 26.8521 32.2378 26.8011V22.9246C32.2383 22.8736 32.2286 22.8229 32.2092 22.7757C32.1899 22.7285 32.1614 22.6856 32.1253 22.6495C32.0892 22.6134 32.0463 22.5848 31.9991 22.5655C31.9518 22.5462 31.9012 22.5365 31.8502 22.5369H27.5176C27.4666 22.5365 27.416 22.5462 27.3687 22.5655C27.3215 22.5848 27.2786 22.6134 27.2425 22.6495C27.2064 22.6856 27.1779 22.7285 27.1586 22.7757C27.1392 22.8229 27.1295 22.8736 27.13 22.9246V26.8011C27.1295 26.8521 27.1392 26.9027 27.1586 26.95C27.1779 26.9972 27.2064 27.0401 27.2425 27.0762C27.2786 27.1123 27.3215 27.1408 27.3687 27.1602C27.416 27.1795 27.4666 27.1892 27.5176 27.1888ZM15.4319 21.6477H19.7645C19.8664 21.6447 19.9633 21.6029 20.0353 21.5308C20.1074 21.4588 20.1492 21.3619 20.1522 21.26V17.3834C20.1526 17.3324 20.1429 17.2818 20.1236 17.2345C20.1042 17.1873 20.0757 17.1444 20.0396 17.1083C20.0035 17.0722 19.9606 17.0437 19.9134 17.0244C19.8662 17.005 19.8156 16.9953 19.7645 16.9957H15.4319C15.3809 16.9953 15.3303 17.005 15.2831 17.0244C15.2358 17.0437 15.1929 17.0722 15.1568 17.1083C15.1207 17.1444 15.0922 17.1873 15.0729 17.2345C15.0536 17.2818 15.0438 17.3324 15.0443 17.3834V21.2599C15.0511 21.3605 15.0941 21.4552 15.1654 21.5265C15.2367 21.5978 15.3314 21.6408 15.4319 21.6476V21.6477ZM21.5204 21.6476H25.853C25.9548 21.6446 26.0517 21.6028 26.1238 21.5307C26.1958 21.4587 26.2376 21.3618 26.2406 21.2599V17.3834C26.2411 17.3324 26.2314 17.2818 26.212 17.2345C26.1927 17.1873 26.1642 17.1444 26.1281 17.1083C26.092 17.0722 26.0491 17.0437 26.0019 17.0244C25.9546 17.005 25.904 16.9953 25.853 16.9957H21.5203C21.4692 16.9953 21.4186 17.005 21.3714 17.0244C21.3242 17.0437 21.2812 17.0722 21.2452 17.1083C21.2091 17.1444 21.1805 17.1873 21.1612 17.2345C21.1419 17.2818 21.1322 17.3324 21.1326 17.3834V21.2599C21.1322 21.311 21.1419 21.3616 21.1612 21.4088C21.1805 21.456 21.2091 21.499 21.2452 21.535C21.2813 21.5711 21.3242 21.5997 21.3714 21.619C21.4186 21.6383 21.4692 21.648 21.5203 21.6476H21.5204ZM27.5175 21.6476H31.8502C31.952 21.6446 32.0489 21.6028 32.121 21.5307C32.193 21.4587 32.2348 21.3618 32.2378 21.2599V17.3834C32.2348 17.2815 32.193 17.1847 32.121 17.1126C32.0489 17.0406 31.952 16.9988 31.8502 16.9957H27.5176C27.4666 16.9953 27.416 17.005 27.3687 17.0244C27.3215 17.0437 27.2786 17.0722 27.2425 17.1083C27.2064 17.1444 27.1779 17.1873 27.1586 17.2345C27.1392 17.2818 27.1295 17.3324 27.13 17.3834V21.2599C27.133 21.3618 27.1748 21.4587 27.2468 21.5307C27.3189 21.6028 27.4158 21.6446 27.5176 21.6476H27.5175ZM27.5176 16.0836H31.8502C31.9012 16.0841 31.9518 16.0743 31.9991 16.055C32.0463 16.0357 32.0892 16.0071 32.1253 15.9711C32.1614 15.935 32.1899 15.8921 32.2092 15.8448C32.2286 15.7976 32.2383 15.747 32.2378 15.696V11.8194C32.2348 11.7176 32.193 11.6207 32.121 11.5486C32.0489 11.4766 31.952 11.4348 31.8502 11.4318H27.5176C27.4666 11.4313 27.416 11.4411 27.3687 11.4604C27.3215 11.4797 27.2786 11.5082 27.2425 11.5443C27.2064 11.5804 27.1779 11.6233 27.1586 11.6706C27.1392 11.7178 27.1295 11.7684 27.13 11.8194V15.696C27.133 15.7978 27.1748 15.8947 27.2468 15.9668C27.3189 16.0388 27.4157 16.0806 27.5176 16.0836ZM33.5605 27.1888H37.8931C37.9441 27.1892 37.9947 27.1795 38.0419 27.1602C38.0892 27.1409 38.1321 27.1123 38.1682 27.0762C38.2042 27.0401 38.2328 26.9972 38.2521 26.95C38.2714 26.9028 38.2812 26.8522 38.2807 26.8011V22.9246C38.2812 22.8736 38.2714 22.8229 38.2521 22.7757C38.2328 22.7285 38.2042 22.6856 38.1682 22.6495C38.1321 22.6134 38.0892 22.5849 38.0419 22.5655C37.9947 22.5462 37.9441 22.5365 37.8931 22.5369H33.5605C33.5094 22.5365 33.4588 22.5462 33.4116 22.5655C33.3644 22.5849 33.3215 22.6134 33.2854 22.6495C33.2493 22.6856 33.2207 22.7285 33.2014 22.7757C33.1821 22.8229 33.1724 22.8736 33.1728 22.9246V26.8011C33.1757 26.903 33.2175 27 33.2895 27.072C33.3616 27.1441 33.4586 27.1859 33.5605 27.1888Z" fill="#D8D8FF"/>
</svg>
