<svg width="122" height="115" fill="none" xmlns="http://www.w3.org/2000/svg">
  <defs>
    <linearGradient id="b" x1="69.297" y1="89.9" x2="71.82" y2="92.572" gradientUnits="userSpaceOnUse">
      <stop offset=".2" stop-opacity=".4"/>
      <stop offset=".85" stop-color="#616161" stop-opacity=".01"/>
    </linearGradient>
    <clipPath id="a">
      <path fill="#fff" transform="translate(.68 .04)" d="M0 0h120.96v114.24H0z"/>
    </clipPath>
  </defs>
  <g clip-path="url(#a)">
    <path d="M71.663 4.857 16.965 56.513l16.85 15.912 71.542-67.568H71.664Zm38.36 47.891H74.274L60.883 65.157 78.76 81.73l31.263-28.983Z" fill="#42A5F5"/>
    <path d="m60.883 98.296 13.391 12.414h35.749L78.76 81.731 60.883 98.296Z" fill="#0D47A1"/>
    <path d="m43.046 81.74 17.852-16.55L78.75 81.736l-17.852 16.55-17.852-16.545Z" fill="#42A5F5"/>
    <path d="M60.898 98.282 78.75 81.736l2.49 2.308-17.852 16.546-2.49-2.308Z" fill="url(#b)"/>
    <path d="M107.78 114.28H73.302a3.888 3.888 0 0 1-2.687-1.061L40.36 84.345c-1.462-1.39-1.456-3.632 0-5.027L70.62 50.5a3.91 3.91 0 0 1 2.692-1.062h34.468c1.527 0 2.903.867 3.488 2.195.584 1.328.272 2.865-.802 3.884L82.888 81.84l27.578 26.351c1.074 1.023 1.386 2.556.802 3.884-.585 1.338-1.961 2.204-3.488 2.204Zm-32.901-7.14h23.85L74.883 84.354a3.432 3.432 0 0 1 0-5.022l23.834-22.748H74.884l-26.52 25.252 26.515 25.304ZM34.362 77.243a3.885 3.885 0 0 1-2.686-1.062L14.374 59.67a3.432 3.432 0 0 1 0-5.022l56.18-53.55c.908-.862 2.168-1.19 3.342-1.005h33.809c1.527 0 2.903.867 3.487 2.195.585 1.328.272 2.865-.801 3.884L37.049 76.186a3.903 3.903 0 0 1-2.687 1.057Zm-11.98-20.078 11.98 11.433L98.648 7.232h-23.89L22.382 57.165Z" fill="#121212"/>
  </g>
  
</svg>