<svg width="69" height="69" viewBox="0 0 69 69" fill="none" xmlns="http://www.w3.org/2000/svg">
<path fill-rule="evenodd" clip-rule="evenodd" d="M48.6457 31.0782C48.45 28.5443 47.8543 26.1008 47.0259 23.7071C45.3098 18.3621 42.5559 13.6318 38.6767 9.56164C37.6959 8.53221 36.6051 7.589 35.9212 6.30777C35.4884 5.49734 35.0763 4.6758 34.6547 3.85902L34.3876 3.18561C34.3426 3.34008 34.3141 3.39509 34.3125 3.45064C34.2781 4.78213 33.5237 5.68513 32.5842 6.52783C31.5278 7.47633 30.5444 8.50576 29.5292 9.49975C28.4882 10.8688 27.4476 12.2379 26.4076 13.6064C25.5655 15.1537 24.7243 16.701 23.8832 18.2484L22.1957 22.8067L22.1449 22.8776C21.216 25.9289 20.7579 29.0659 20.5325 32.2346C20.4479 33.4254 20.5442 34.6336 20.6114 35.8307C20.7071 37.542 21.0044 39.2243 21.4504 40.88C23.0702 46.8958 26.3574 51.8859 30.8512 56.1253C31.6865 56.913 32.5435 57.6292 33.4153 58.3788C33.5645 57.8683 33.6835 57.3578 33.8189 56.8474C33.9543 56.339 34.0913 55.8333 34.1829 55.3233C34.0908 55.8333 33.9877 56.339 33.8856 56.8474L33.4486 58.3788L33.839 59.7018L34.2008 61.7565L34.3733 63.9005C34.3717 64.3359 34.3543 64.7723 34.3807 65.2071C34.3871 65.3182 34.5331 65.4209 34.6145 65.5277L35.3424 65.7832L36.101 66.0784L35.9709 64.1724L35.9651 62.2955L36.2269 59.4363L36.4168 58.8137L36.9601 57.8509C37.6309 57.3113 38.3508 56.8214 38.9618 56.221C40.0675 55.1345 41.1704 54.0341 42.1597 52.8444C43.4435 51.3013 44.5481 49.617 45.4347 47.8105C46.0282 46.6022 46.5868 45.3697 47.0492 44.1069C47.4565 42.9939 47.7089 41.8243 48.03 40.6795C48.0585 40.597 48.0966 40.5161 48.1146 40.432C48.778 37.3421 48.8896 34.221 48.6457 31.0782ZM36.1618 57.1976L35.736 56.2649L36.1618 57.1976L36.7877 57.7318L36.1618 57.1976Z" fill="#5EE64A"/>
</svg>
