<svg width="48" height="55" viewBox="0 0 48 55" fill="none" xmlns="http://www.w3.org/2000/svg">
<g clip-path="url(#clip0_2_4965)">
<path d="M46.5136 52.5746L45.5614 51.4924C44.659 50.0882 43.4982 48.8546 42.2799 47.8304C41.3084 47.0131 39.1273 45.9091 38.7218 44.5847L38.6472 44.5015C39.3363 44.4102 40.1407 44.1184 40.7766 43.9184C41.8446 43.5831 42.7262 43.6697 43.8291 43.3361C44.3263 43.1698 44.8843 43.003 45.2483 42.8366V42.5039C44.8843 41.8338 44.3649 40.9465 43.757 40.3399C42.1667 38.7531 40.4661 37.1676 38.6789 35.8453C37.6877 35.1124 36.4799 34.636 35.4298 34.0145C35.0764 33.805 34.4645 33.6962 34.2308 33.3482C33.6786 32.524 33.3834 31.479 32.9575 30.5188C32.0661 28.5067 31.1925 26.3095 30.4026 24.1924C29.8639 22.7489 29.5134 21.3259 28.8414 20.0309C25.6164 13.8171 22.1456 10.0672 16.7686 6.38088C15.6238 5.59686 14.2465 5.2876 12.7905 4.88237C12.01 4.82734 11.2285 4.77146 10.4474 4.71558C9.97019 4.48268 9.47406 3.7989 9.02707 3.46703C7.24492 2.1481 2.67563 -0.720529 1.35613 3.05114C0.522933 5.43178 2.60101 7.75399 3.3443 8.96073C3.86664 9.80618 4.53458 10.7553 4.90695 11.7069C5.15265 12.3327 5.19451 12.9602 5.40454 13.6218C5.92069 15.2521 6.3695 17.0257 7.03781 18.5319C7.37523 19.2946 7.74724 20.0974 8.17421 20.7791C8.43557 21.1975 8.88401 21.3818 8.95499 22.0276C8.51674 22.7468 8.49162 23.8635 8.24519 24.7747C7.13499 28.8761 7.55432 33.9744 9.16866 37.0098C9.6637 37.9422 10.8307 39.9407 12.4356 39.1737C13.8391 38.504 13.6098 36.4275 14.0113 34.5959C14.102 34.1812 13.944 33.8758 14.308 33.5973V33.6805C14.672 34.679 15.076 35.678 15.5026 36.6766C16.449 38.4626 18.0102 40.3289 19.4331 41.5881C20.1709 42.2411 20.86 43.3698 21.588 43.752V43.7089H21.6684C21.4839 43.2824 21.1945 43.2111 20.9586 42.9394C20.4028 42.3013 19.7844 41.4968 19.3254 40.7652C18.031 38.7062 16.8873 36.4476 15.8452 34.1015C15.3472 32.9813 14.9144 31.743 14.4951 30.6032C14.3338 30.1639 14.3356 29.4976 13.9986 29.2702C13.5388 30.1054 12.8622 30.7803 12.5065 31.7669C11.9383 33.3435 11.8652 35.2664 11.6544 37.2597C11.5296 37.3118 11.5853 37.2759 11.5121 37.3425C10.5227 37.0631 10.1755 35.87 9.80748 34.8458C8.87746 32.2566 8.70493 28.0878 9.5232 25.1078C9.73505 24.3362 10.692 21.9082 10.3043 21.1954C10.1194 20.4852 9.50937 20.0735 9.1683 19.5305C8.74569 18.8591 8.32418 17.9753 8.03153 17.1998C7.2704 15.1817 6.9155 12.9154 6.11397 10.8747C5.73068 9.89917 5.08313 8.91168 4.55132 8.0449C3.96273 7.08386 3.30317 6.37619 2.84635 5.21466C2.68437 4.80175 2.46378 4.14058 2.70439 3.71615C2.78083 3.42992 2.88893 3.31049 3.13063 3.21707C3.54304 2.84468 4.68964 3.34077 5.11916 3.54936C6.25812 4.10389 7.20889 4.61577 8.17385 5.36481C8.63649 5.72483 9.10533 6.17101 9.66516 6.59758H10.3043C11.3042 6.59758 12.4243 6.69654 13.3587 7.02926C15.0094 7.61749 16.4891 8.54014 17.833 9.53446C21.9265 12.5639 25.2735 16.8799 27.5634 22.0234C27.9318 22.8517 28.0912 23.6439 28.4155 24.5222C29.07 26.2937 29.8948 28.1172 30.546 29.8495C31.1961 31.5784 31.8295 33.3226 32.7482 34.7609C33.2312 35.5168 35.0964 35.9229 35.9441 36.3431C36.5386 36.637 37.5122 36.9441 38.075 37.3412C39.1499 38.1013 40.1913 39.0065 41.2003 39.8387C41.7041 40.2542 43.2533 41.167 43.3308 41.9195C40.8327 41.8393 38.9249 42.1123 37.2939 42.9181C36.8305 43.1472 36.0908 43.1535 36.0151 43.8339C36.2699 44.1466 36.3096 44.6141 36.512 44.9989C36.9011 45.7368 37.5588 46.7273 38.1456 47.246C38.787 47.8133 39.4473 48.4195 40.1345 48.9104C41.3572 49.7836 42.7215 50.2827 43.8986 51.1576C44.5924 51.6737 45.3393 52.3234 46.0153 52.9052C46.3502 53.1931 46.3396 53.6406 47.0676 53.821V53.7383C46.704 53.3992 46.7233 52.9308 46.5136 52.5746ZM11.5831 10.2093C11.0622 10.1978 10.668 10.2763 10.304 10.3752V10.4375H10.376C10.6247 10.8641 11.0633 11.4314 11.3701 11.9467L12.0807 13.699L12.1509 13.6192C12.591 13.2554 12.7926 12.6761 12.7901 11.7888C12.6143 11.5717 12.5877 11.3 12.4356 11.0407C12.2325 10.6956 11.839 10.4998 11.5831 10.2093Z" fill="#2BABE1"/>
</g>
<defs>
<clipPath id="clip0_2_4965">
<rect width="46.592" height="54.6" fill="white" transform="translate(0.839966 0.200012)"/>
</clipPath>
</defs>
</svg>
