<svg width="68" height="58" viewBox="0 0 68 58" fill="none" xmlns="http://www.w3.org/2000/svg">
<path d="M33.5147 6.46158C32.9878 6.922 32.4731 7.38892 31.9706 7.86234C31.5697 7.52572 31.1631 7.19981 30.7565 6.87389C24.1734 1.68669 17.8601 -0.559235 14.3776 1.33317C11.0374 3.16414 10.5168 8.77098 12.6682 15.8671C12.8759 16.5672 13.1136 17.2696 13.3627 17.9507C12.8916 18.0705 12.4147 18.2009 11.9501 18.3379C4.42702 20.578 -0.242528 24.3491 0.148239 28.301C0.516011 32.0898 5.58322 35.8538 13.0999 38.3419C13.8467 38.5881 14.587 38.8171 15.3508 39.0312C15.2069 39.8325 15.0931 40.636 15.0143 41.4033C14.239 48.3147 15.6295 54.3067 19.3195 56.2688C23.1317 58.2958 29.2757 55.967 34.7524 51.2673C35.1915 50.8836 35.6306 50.5 36.051 50.0926C36.6988 50.6428 37.3458 51.1651 38.023 51.6897C44.2074 56.4181 50.0498 58.3999 53.3843 56.5797C56.8254 54.7063 57.4514 48.8127 55.2355 41.5726C55.0557 40.997 54.8637 40.4149 54.6472 39.8198C55.4228 39.6287 56.1852 39.4032 56.9355 39.1713C63.8652 36.9859 68.0905 33.4313 67.7293 29.6596C67.3581 25.7593 62.0789 21.7454 54.3929 19.2222C53.8041 19.0325 53.1974 18.8471 52.5728 18.6659C52.6448 18.2652 52.6988 17.8688 52.7528 17.4724C53.6993 10.0623 52.3001 3.58552 48.4267 1.52603C44.7245 -0.442503 38.8923 1.86006 33.5147 6.46158ZM15.4492 15.412C13.6052 9.32962 14.0261 4.79442 16.0363 3.6963C18.1822 2.51956 23.3415 4.37133 29.0315 8.85053C29.4072 9.14626 29.7706 9.4355 30.1226 9.74612C28.2496 11.7949 26.5306 13.9667 25.0014 16.2531C21.9897 16.4347 19.0075 16.7965 16.0915 17.3581C15.8611 16.7007 15.6495 16.0671 15.4492 15.412ZM35.1664 41.7637C36.5193 41.7836 37.878 41.7929 39.2292 41.757C38.1346 43.3145 36.948 44.8094 35.675 46.2308C34.1656 44.8248 32.6577 43.2688 31.1643 41.597C32.5011 41.6769 33.8313 41.7396 35.1664 41.7637ZM18.7447 37.1877C19.1723 35.4402 19.7244 33.6354 20.384 31.8054C21.0968 32.9113 21.8398 34.0195 22.6121 35.1022C23.3721 36.1783 24.1622 37.2567 24.9816 38.3096C22.8029 38.0152 20.7177 37.6333 18.7447 37.1877ZM28.7211 38.7344C27.4101 37.1322 26.1699 35.4853 24.9769 33.8086C23.7838 32.132 22.6738 30.4171 21.6109 28.6725C22.3293 26.9973 23.1258 25.3224 24.0126 23.6545C24.8995 21.9865 25.8483 20.379 26.8298 18.8573C28.8525 18.7671 30.8892 18.7391 32.9399 18.7734C34.9905 18.8077 37.0493 18.915 39.1099 19.078C40.4152 20.6909 41.6676 22.3443 42.8671 24.0382C44.0602 25.7148 45.1759 27.419 46.2567 29.1594C45.544 30.8239 44.7239 32.5137 43.8314 34.1923C42.9388 35.8709 42.0136 37.4636 41.068 38.9769C39.0216 39.082 36.967 39.1141 34.9041 39.0733C32.8413 39.0325 30.7881 38.9146 28.7211 38.7344ZM45.2442 22.7511C44.4589 21.6341 43.6443 20.5427 42.8118 19.4554C44.9473 19.7132 47.0619 20.0695 49.1854 20.5266C48.7319 22.4112 48.1693 24.2653 47.491 26.0715C46.7716 24.9484 46.0107 23.8444 45.2442 22.7511ZM36.7155 16.2414C35.3731 16.1722 34.0249 16.1137 32.6899 16.0896C31.3727 16.0613 30.0564 16.0608 28.7409 16.0883C29.9006 14.4968 31.106 13.0256 32.3279 11.7004C33.8747 13.1538 35.3272 14.6667 36.7155 16.2414ZM17.1082 19.9559C19.0981 19.5739 21.1271 19.295 23.1653 19.1169C21.9297 21.1755 20.7984 23.3032 19.7827 25.4787C18.7636 23.5928 17.8715 21.7333 17.1082 19.9559ZM3.02353 28.376C2.78118 25.9431 6.61231 22.8645 13.0986 20.9235C13.5096 20.7991 13.9449 20.6878 14.386 20.5657C15.5453 23.3079 16.9073 25.9933 18.4353 28.6023C17.3948 31.1486 16.549 33.771 15.8857 36.463C15.1886 36.2706 14.4907 36.0504 13.7928 35.8302C7.34456 33.6908 3.2372 30.6566 3.02353 28.376ZM33.8392 48.1211C33.4538 48.4922 33.0619 48.8461 32.6578 49.1935C30.6282 51.0356 27.9572 52.9344 25.264 53.9025C23.8345 54.5276 22.1283 54.553 20.5418 53.97C18.3058 52.7811 17.243 47.8822 17.8926 41.9737C17.9723 41.2343 18.0821 40.4972 18.2041 39.7666C21.2422 40.4494 24.3109 40.9565 27.368 41.2791C29.376 43.6633 31.5434 45.9541 33.8392 48.1211ZM52.4423 42.0212C53.3493 44.7664 53.7297 47.5882 53.5491 50.3448C53.5657 51.8759 52.8991 53.277 51.7012 54.2035C49.6731 55.3058 44.9847 53.7181 39.6925 49.6699C39.0708 49.1884 38.4547 48.6963 37.8623 48.1893C39.7222 46.1062 41.4103 43.9042 42.9199 41.5662C45.9552 41.3697 48.9667 40.9823 51.9006 40.4165C52.0974 40.9601 52.2821 41.4971 52.4423 42.0212ZM50.866 37.8229C48.942 38.1989 46.8715 38.4968 44.708 38.7043C45.3026 37.7038 45.8899 36.6583 46.4584 35.5891C47.044 34.4878 47.5937 33.395 48.1011 32.2933C49.1299 34.102 50.0455 35.9467 50.866 37.8229ZM61.9619 25.7976C63.4014 26.6864 64.4532 28.0686 64.8483 29.5953C65.0685 31.893 61.675 34.738 55.7577 36.6112C55.079 36.8264 54.3637 37.0221 53.6305 37.222C52.4354 34.4881 51.0498 31.8176 49.4804 29.2277C50.5501 26.6558 51.4186 23.9906 52.0746 21.2536C52.6324 21.413 53.1845 21.5832 53.7187 21.7575C56.6366 22.6369 59.4312 24.0132 61.9619 25.7976ZM49.8614 16.8676C49.8122 17.2255 49.763 17.5833 49.6959 17.9453C46.6343 17.2775 43.5428 16.8132 40.4507 16.5268C38.5038 14.175 36.3984 11.9447 34.1579 9.82081C34.6368 9.36228 35.1166 8.93163 35.585 8.52237C40.1892 4.57941 44.9562 2.62938 47.18 3.8118C49.5749 5.08518 50.6822 10.4604 49.8614 16.8676ZM39.5182 31.8989C40.9565 29.1939 39.6171 25.6702 36.5257 24.0265C33.4344 22.3828 29.7641 23.2428 28.3258 25.9479C26.8875 28.6529 28.2269 32.1766 31.3183 33.8203C34.4096 35.464 38.0799 34.604 39.5182 31.8989Z" fill="#45D2FF"/>
</svg>
